<?xml version="1.0" encoding="utf-8"?>
<!-- Generator: Adobe Illustrator 25.4.1, SVG Export Plug-In . SVG Version: 6.00 Build 0)  -->
<svg version="1.1" id="Слой_1" xmlns="http://www.w3.org/2000/svg" xmlns:xlink="http://www.w3.org/1999/xlink" x="0px" y="0px"
	 viewBox="0 0 20 20" style="enable-background:new 0 0 20 20;" xml:space="preserve">
<style type="text/css">
	.st0{fill:#9B9B9B;}
</style>
<g>
	<path class="st0" d="M7.5,19.2c-1,0-1.8-0.8-1.8-1.8s0.8-1.8,1.8-1.8s1.8,0.8,1.8,1.8S8.5,19.2,7.5,19.2z M7.5,17.2
		c-0.1,0-0.2,0.1-0.2,0.2c0,0.2,0.4,0.2,0.4,0C7.7,17.3,7.6,17.2,7.5,17.2z"/>
	<path class="st0" d="M16.5,19.2c-1,0-1.8-0.8-1.8-1.8s0.8-1.8,1.8-1.8c1,0,1.8,0.8,1.8,1.8S17.5,19.2,16.5,19.2z M16.5,17.2
		c-0.1,0-0.2,0.1-0.2,0.2c0,0.2,0.4,0.2,0.4,0C16.7,17.3,16.6,17.2,16.5,17.2z"/>
	<path class="st0" d="M8.1,14.3c-0.6,0-1.2-0.2-1.6-0.6c-0.5-0.4-0.8-0.9-0.9-1.5L4.1,5.3c0,0,0-0.1,0-0.1L3.5,2H1C0.4,2,0,1.6,0,1
		s0.4-1,1-1h3.3c0.5,0,0.9,0.3,1,0.8l0.7,3.3H19c0.3,0,0.6,0.1,0.8,0.4C20,4.7,20,5,20,5.3l-1.3,6.9c-0.1,0.6-0.5,1.2-0.9,1.5
		c-0.5,0.4-1.1,0.6-1.7,0.6L8.1,14.3C8.1,14.3,8.1,14.3,8.1,14.3z M6.3,6.1l1.1,5.7c0,0.1,0.1,0.3,0.2,0.4c0.1,0.1,0.3,0.1,0.4,0.1
		h8c0.1,0,0.3,0,0.4-0.1c0.1-0.1,0.2-0.2,0.2-0.4l1.1-5.7H6.3z"/>
</g>
</svg>
