<?xml version="1.0" encoding="UTF-8"?>
<svg version="1.1" viewBox="0 0 2048 2048" width="512" height="512" xmlns="http://www.w3.org/2000/svg">
<path transform="translate(1036,28)" d="m0 0h44l30 1 51 4 40 5 36 6 35 7 37 9 36 10 43 14 39 15 24 10 35 16 36 18 18 10 24 14 20 12 36 24 17 12 19 14 16 13 14 11 28 24 12 11 8 7 11 11 8 7 14 14 7 8 12 12 7 8 9 10 9 11 9 10 8 10 11 14 14 18 24 34 8 12 16 25 13 22 13 23 14 27 10 19 11 23 14 32 14 37 14 41 10 34 10 40 8 38 6 36 6 47 3 26 1 5v136l-3 23-5 44-5 35-6 32-7 32-7 28-13 42-14 41-12 30-13 31-13 28-23 45-14 24-12 20-16 25-14 21-14 19-12 16-14 18-13 16-9 10-7 8-12 14-16 17-14 15-8 8-8 7-10 10-8 7-14 13-11 9-11 10-17 13-15 12-20 15-17 12-32 21-19 12-19 11-27 15-39 20-40 18-37 15-25 9-43 14-36 10-33 8-41 8-38 6-43 5-58 4h-76l-64-5-38-5-43-7-42-9-39-10-41-13-2-1-9 1-24 7-55 15-60 15-51 10-45 7-44 6-21 1-6-2-14-2-19-7-16-9-11-9-14-14-8-11-9-17-5-15-5-23-14-77-1-8v-31l3-24 6-23 8-22 5-11 4-7-1-5-9-11-15-16-7-8-13-15-11-13-9-12-14-18-14-19-12-17-13-20-10-16-13-21-8-13-7-14-10-19-18-36-10-22-11-27-13-33-12-36-15-51-6-25-6-26-2-12-3-9-9-2-18-10-13-10-13-13-10-14-8-15-8-24v-42l3-8 12-36 12-33 9-26 8-18 6-10 8-12 10-13 3-5 9-59 9-45 12-48 11-37 14-41 15-38 12-27 12-26 12-24 12-22 16-28 13-21 13-20 11-16 13-18 10-14 13-16 10-13 11-13 12-14 13-15 6-7 22-22 6-7 8-7 13-13 8-7 13-12 11-9 11-10 14-11 16-13 16-12 17-12 14-10 43-28 25-14 21-12 33-17 32-15 28-12 36-14 44-15 47-13 33-8 40-8 38-6 43-5 43-3z" fill="#4694C8"/>
<path transform="translate(1036,28)" d="m0 0h44l30 1 51 4 40 5 36 6 35 7 37 9 36 10 43 14 39 15 24 10 35 16 36 18 18 10 24 14 20 12 36 24 17 12 19 14 16 13 14 11 28 24 12 11 8 7 11 11 8 7 14 14 7 8 12 12 7 8 9 10 9 11 9 10 8 10 11 14 14 18 24 34 8 12 16 25 13 22 13 23 14 27 10 19 6 13-1 3-10 4-10 8-6 7-9 16-18 36-7 11-5 9-8 12-14 19-12 14-2 3h-2l-2 4-27 27-10 8-14 11-14 9-2 1h-12l-41-6-26-6-14-4-19-6-18-7-16-7-25-13-13-8-12-8-14-10-15-12-11-9-15-13-14-12-11-9-14-12-11-9-13-12-14-12-11-9-8-7-8-6-5-5-17-12-15-9-17-8-18-6-30-6h-34l-8 1-16-12-19-13-16-12-17-12-14-10-36-26-14-10-4-3-2 4-13 15-9 11-14 15-3 4h-2l-2 4-7 7-2 3h-2l-2 4-14 14-6-1-6-4-9-3h-12l-16 8-7 8-4 9-1 6v8l3 10 4 7-1 5-11 10-14 11-3 3h-2v2l-10 8-14 12-9 7h-5l-9-7-7-3-5-1h-10l-11 4-9 6-7 10-3 9v10l5 15-4 4-17 11-16 10-19 12-14 8-4 1 8 16 14 32 13 32 14 34 2 8v10l-3 10-8 11-9 6-10 3h-9l-8-2-6-3-10-9-8-15-18-41-10-22-12-29-1-6-15 7-28 13-18 7-20 5 4 18 10 54 2 11v17l-4 10-7 9-10 6-5 2h-16l-10-4-10-9-6-12-6-26-8-37-4-19v-8l-26 7-38 10-19 6-11 5-27 10-25 11-22 12-15 9-13 9-13 10-13 12-3 3h-2l-2 4-13 13-13 19-10 16-8 16-10 26-8 30-2 11-10-2-27-7-39-12-36-12-31-11-30-12-30-13-26-12-46-23-3-1 2-6 7-12 8-12 10-13 3-5 9-59 9-45 12-48 11-37 14-41 15-38 12-27 12-26 12-24 12-22 16-28 13-21 13-20 11-16 13-18 10-14 13-16 10-13 11-13 12-14 13-15 6-7 22-22 6-7 8-7 13-13 8-7 13-12 11-9 11-10 14-11 16-13 16-12 17-12 14-10 43-28 25-14 21-12 33-17 32-15 28-12 36-14 44-15 47-13 33-8 40-8 38-6 43-5 43-3z" fill="#FDB85C"/>
<path transform="translate(1956,605)" d="m0 0h2l10 21 13 32 13 35 14 43 11 40 9 39 8 43 4 28 4 32 3 26 1 5v136l-3 23-5 44-5 35-6 32-7 32-7 28-12 39-42 4-10 4-12 7-13 9-15 10-40 25-19 12-18 11-24 15-15 9-31 19-15 9-28 17-22 13-40 24-17 10-28 17-18 10-22 13-24 14-23 13-49 28-19 11-33 18-23 13-16 9-11 6-16 9-12 6-22 12-34 18-26 14-16 8-33 17-16 9-106 53-23 11-36 17-37 17-20 9h-3v-2l-5-2-10-8-7-8-8-13-14-28-13-28-22-45-7-17-3-16 1-15 3-12-26 11-45 19-28 12-5 1 1-19 4-20 6-16 8-14 14-20 11-13 7-8 9-10 11-11 11-9 7-7 8-7 12-11 4-4h2l2-4 13-11 16-15 10-9 6-5 7-8 10-8 8-8 8-7 8-8 8-7 77-77 7-8 9-9 7-8 13-14 7-8 9-10 9-11 12-14 7-9 8-10 10-14 13-16 11-14 10-13 8-11 11-16 10-14 8-12 13-19 10-15 36-60 12-22 14-27 13-26 15-33 15-36 11-30 19-57-9-1-6-2v-1l15 1 36 6 70 12 27 4 18 2 31 1 22-1 36-5 29-6 25-7 15-5 29-14 16-8 24-13 1-1-2-2 9-3 16-11 11-9 13-11 24-24 7-8 10-12 13-18 12-18 6-11 12-23 12-24 8-12 7-7 7-5z" fill="#66B4EB"/>
<path transform="translate(2046,1010)" d="m0 0h2v75l-3 23-5 44-5 35-6 32-7 32-7 28-12 39-42 4-10 4-12 7-13 9-15 10-40 25-19 12-18 11-24 15-15 9-31 19-15 9-28 17-22 13-40 24-17 10-28 17-18 10-22 13-24 14-23 13-49 28-19 11-33 18-23 13-16 9-11 6-16 9-12 6-22 12-34 18-26 14-16 8-33 17-16 9-106 53-23 11-36 17-37 17-20 9h-3v-2l-5-2-10-8-7-8-8-13-14-28-13-28-22-45-7-17-3-16 1-15 4-14 29-14 28-13 22-10 16-8 27-13 24-11 17-9 42-21 19-10 29-15 16-8 46-24 22-12 81-45 23-13 29-16 23-13 25-14 19-11 25-15 26-15 15-9 44-26 24-14 20-12 54-32 16-10 28-17 24-15 23-14 19-12 20-12 19-12 13-8 22-14 21-13 20-13 52-32 15-10 23-15 39-26 43-29z" fill="#D6D8D4"/>
<path transform="translate(1994,1318)" d="m0 0h8l-2 9-12 35-12 30-13 31-13 28-23 45-14 24-12 20-16 25-14 21-14 19-12 16-14 18-13 16-9 10-7 8-12 14-16 17-14 15-8 8-8 7-10 10-8 7-14 13-11 9-11 10-17 13-15 12-20 15-17 12-32 21-19 12-19 11-27 15-39 20-40 18-37 15-25 9-43 14-36 10-33 8-41 8-38 6-43 5-58 4h-76l-64-5-38-5-43-7-42-9-39-10-41-13-6-2 3-2 67-23 42-16 30-12 22-9 26-11 25-11 17-8 10-3 23-11 20-9 34-16 28-13 106-53 19-10 69-36 32-17 22-12 19-10 23-13 19-10 17-10 17-9 21-12 22-12 24-14 27-15 17-10 28-16 20-12 28-16 55-33 17-10 45-27 18-11 17-10 19-12 25-15 16-10 19-12 18-11 21-13 34-22 21-14 13-7 14-2z" fill="#FB9451"/>
<path transform="translate(897,696)" d="m0 0h3l13 22 12 19 14 23 10 15 7 11 13 21 14 23 7 8 7 5 12 4h9l10-4h4v7l18 1 111 11 29 3 4 1-2 4-12 12-9 11-11 15-10 18-12 23-21 42-2 5-7-1-69-26-20-7-10-4 5-26 4-16-15 6-48 16-41 12-48 13-42 11-31 7-38 9-126 28-35 10-22 8-17 8-16 10-13 11-8 8-10 13-2 5-2 3 36 4 84 10-2 4-9 7-5 5-7 9-4 9-3 17-5 57-4 48v20l4 15 6 10 7 8v2l-19-1-40-5-42-5-53-8-54-9-36-7-38-8-47-12-43-12-40-12-44-15-21-8-34-14-25-10-17-10-11-9-12-12-10-14-8-15-8-24v-42l3-8 12-36 12-33 9-26 4-10 6 1 54 27 41 18 38 15 34 12 36 12 33 10 37 10 1-11 8-30 7-18 6-15 12-21 12-17 7-9 26-26 14-11 11-8 19-12 20-11 29-13 32-12 12-5 35-10 39-10h3l3 17 10 47 6 26 6 12 9 8 10 4h16l12-6 5-4 6-10 2-6v-17l-12-65-4-18 5-2 16-4 22-9 37-17h2l8 20 12 29 7 15 18 40 6 10 9 8 7 3 6 1h9l12-4 8-6 6-9 3-10v-10l-5-16-8-19-20-48-11-25-6-12v-2l13-7 21-13 19-12z" fill="#2675A9"/>
<path transform="translate(79,1198)" d="m0 0 9 3 20 8 27 11 25 9 43 14 34 10 59 16 29 7 52 11 52 9 52 8 37 5 47 6 39 4 37 4 86 7 70 5 10 1 24 1 1 2-9 13-14 17-10 10 1 4 12 13 9 11 11 12 9 11 9 10 9 13 4 10v14l-4 9-4 6-5 5-8 5-5 2-13 1-12-4-9-7-11-11-7-8-12-14-9-9-9-11-10-11v-3l-4 1-13 13-8 7-31 31-5 6-4 7-14 17-12 15-10 14-10 15-13 23-10 21-9 24-6 25-3 18v49l4 24 6 23 6 18v2l-24 7-46 11-44 9-53 9-40 5-33 3-36 2h-17l-1 3v-31l3-24 6-23 8-22 5-11 4-7-1-5-9-11-15-16-7-8-13-15-11-13-9-12-14-18-14-19-12-17-13-20-10-16-13-21-8-13-7-14-10-19-18-36-10-22-11-27-13-33-12-36-15-51-6-25-6-26-2-12z" fill="#FD7048"/>
<path transform="translate(930,1175)" d="m0 0 15 8 28 15 11 6 16 8 9 5v6l8 16 7 10 9 10 7 7 14 10 12 6 15 6 18 3h19l22-3 16-5 5-4h2l-1 4-4 5h-2l-2 5-9 10-9 11-12 14-11 12-7 8-22 24-7 7-7 8-78 78-8 7-8 8-8 7-9 8-8 7-15 15-8 7-15 14-9 7-9 9-15 14-12 11-14 12-13 13-7 8-9 11-9 12-12 18-8 16-5 17-2 12-2 19 33-14 45-19 19-8 8-3-2 9-2 14 1 13 5 16 14 29 16 33 13 28 12 24 10 14 9 8 8 5v2l-21 10-37 16-19 8-30 12-23 9-29 11-19 7-21 7-35 12-11 4-58 16-35 9-40 10-51 10-45 7-44 6-21 1-6-2-14-2-19-7-16-9-11-9-14-14-8-11-9-17-5-15-5-23-14-77v-11l66-4 44-5 35-5 50-9 54-12 42-11h2l-9-27-5-21-3-19v-49l3-18 6-25 10-26 12-25 14-23 13-19 13-16 11-14 8-10 3-5 11-12 26-26h2l2-4 8-7 8-8 3 1 3 5 9 10 9 11 11 11 9 11 16 17 7 6 8 4 7 2 13-1 12-6 5-5 5-7 3-8v-14l-4-10-7-10-36-42-9-10-7-8-1-5 12-11 13-16 10-14 7-9 9-15 5 2 13 10 16 12 17 12 18 13 20 15 14 8 5 2h15l11-4 6-5 7-10 2-6 1-11-3-12-7-10-9-8-15-11-12-9-14-11-13-10-19-14-14-10-5-3 1-4 14-26 9-16 6-11z" fill="#53596C"/>
<path transform="translate(40,954)" d="m0 0 6 1 54 27 41 18 38 15 34 12 36 12 33 10 41 11 38 9 34 7 21 4 39 7 52 7 117 14-2 4-9 7-5 5-7 9-4 9-3 17-5 57-4 48v20l4 15 6 10 7 8v2l-19-1-40-5-42-5-53-8-54-9-36-7-38-8-47-12-43-12-40-12-44-15-21-8-34-14-25-10-17-10-11-9-12-12-10-14-8-15-8-24v-42l3-8 12-36 12-33 9-26z" fill="#53596C"/>
<path transform="translate(1956,605)" d="m0 0h2l10 21 13 32 13 35 14 43 11 40 9 39 8 43 4 28 4 32 3 26 1 5v61l-11 6-43 29-39 26-29 19-17 11-21 13-23 14-14 9h-7l-8 2-19-3-23-6-20-8-16-8-16-11-15-14-11-11-10-13-11-17-8-15-7-19-5-16-4-23v-29l4-29 6-22 9-20 6-12 9-16 4-1v-2l33-16 16-8 22-12 1-1-2-2 9-3 16-11 11-9 13-11 24-24 7-8 10-12 13-18 12-18 6-11 12-23 12-24 8-12 7-7 7-5z" fill="#7AC8F5"/>
<path transform="translate(930,1175)" d="m0 0 15 8 28 15 11 6 16 8 9 5v6l8 16 7 10 9 10 7 7 14 10 12 6 15 6 18 3h19l22-3 16-5 5-4h2l-1 4-4 5h-2l-2 5-9 10-9 11-12 14-11 12-7 8-22 24-7 7-7 8-78 78-8 7-8 8-8 7-9 8-8 7-15 15-8 7-15 14-9 7-9 9-15 14-12 11-14 12-13 13-7 8-9 11-9 12-12 18-8 16-5 17-2 12-2 20-21 9-33 13-47 17-47 15-24 7h-6l-4-10-7-23-4-20-2-13v-49l3-18 6-25 10-26 12-25 14-23 13-19 13-16 11-14 8-10 3-5 11-12 26-26h2l2-4 8-7 8-8 3 1 3 5 9 10 9 11 11 11 9 11 16 17 7 6 8 4 7 2 13-1 12-6 5-5 5-7 3-8v-14l-4-10-7-10-36-42-9-10-7-8-1-5 12-11 13-16 10-14 7-9 9-15 5 2 13 10 16 12 17 12 18 13 20 15 14 8 5 2h15l11-4 6-5 7-10 2-6 1-11-3-12-7-10-9-8-15-11-12-9-14-11-13-10-19-14-14-10-5-3 1-4 14-26 9-16 6-11z" fill="#2675A9"/>
<path transform="translate(940,1107)" d="m0 0h7l12 3 23 11 22 12 21 12 14 7 23 13 34 18 11 7 8 7 6 11 1 4v11l-3 11-6 9-9 7-8 3-14 1-12-4-29-15-22-12-19-10-19-9-8-5-25-13-17-10-3 4-10 17-6 11-12 23-10 18-2 4 5 2 14 10 28 21 14 11 13 10 19 14 11 10 5 8 3 12-1 11-4 9-7 9-7 5-9 3h-15l-16-8-19-14-36-26-32-24-5-2-8 14-7 9-3 1-24-1-66-5-89-7-41-4-9-2-10-13-5-10-3-12v-20l8-95 3-23 4-11 6-9 4-5 10-8 7-5 134 11 64 4 60 3 27 1 10-11 11-7z" fill="#D6D8D4"/>
<path transform="translate(1044,537)" d="m0 0h12l11 4 10 7 7 8 12 14 14 17 12 14 8 10 13 16 9 11 11 13 9 11 22 26 10 13 7 12 2 11v7l12 1 63 9 17 4 14 7 11 9 7 11 4 7 4 16v19l-2 18h-8l-21-3h-19l-24 4-22 6-21 9-14 8-14 9-2 1-19-1-67-7-73-7-7-1v-7l-14 5h-9l-12-4-8-6-9-11-13-22-10-16-22-34-14-23-13-21-8-13v-2l-3-1-5-15v-10l4-11 7-9 9-6 11-4h10l9 3 6 3 6 5h5l17-14 14-12h2v-2l14-11 12-11 4-3-1-6-5-10-1-5v-8l2-9 6-10 7-6z" fill="#D6D8D4"/>
<path transform="translate(1016,916)" d="m0 0h2l-1 8-6 27-1 7 36 12 12 5 50 19 30 11 35 13 28 11 9 6 6 7 4 9 1 5v8l-3 12-7 9-7 6-9 4-4 1h-8l-16-4-71-26-27-10-29-10-46-17h-5l-18 49-10 27-2 5-12-2h-7l-10 3-11 8-8 9-27-1-94-5-67-5-99-8-117-14-3-1 2-4 3-7 12-14 9-9 13-10 16-9 23-10 22-7 25-7 35-8 95-21 68-16 43-11 30-8 32-9 29-9 36-12z" fill="#4694C8"/>
<path transform="translate(1160,1782)" d="m0 0 4 2 6 10 8 16 12 20 9 13 10 14 9 11 9 10 7 8 7 7 8 7 7 6v2l4 2 11 9 22 16 18 11 9 6 12 7 3 3 4 2 3 4-5 3-44 12-36 8-44 8-38 5-26 3-58 4h-76l-64-5-38-5-43-7-42-9-39-10-41-13-6-2 3-2 67-23 42-16 30-12 22-9 26-11 25-11 17-8 10-3 23-11 20-9 34-16 28-13 62-31z" fill="#FD7048"/>
<path transform="translate(681,1486)" d="m0 0h2l-2 5-11 13-22 28-10 15-12 20-12 23-10 26-4 13-6 27-1 8v49l4 24 6 23 6 18v2l-24 7-46 11-44 9-53 9-40 5-33 3-36 2h-17l-1 3v-31l3-24 6-23 8-22 5-11 4-7 3-8 7-10 12-18 10-13 9-10 6-8h2l2-4 17-16 12-11 28-22 16-11 19-12 21-12 27-14 21-10 27-11 34-13 47-15 19-6z" fill="#D6D8D4"/>
<path transform="translate(315,813)" d="m0 0h12l38 2 34 3 32 4 39 7 37 8 22 5-1 2-24 9-29 12-17 8-23 13-15 10-17 13-13 12-3 3h-2l-2 4-13 13-13 19-10 16-8 16-10 26-8 30-2 11-10-2-27-7-39-12-36-12-31-11-30-12-30-13-26-12-46-23-3-1 2-6 7-12 8-12 10-13 3-5 1-5 2 2 10-9 14-12 13-10 17-11 22-12 19-8 17-6 23-7 27-6 10-2 40-5z" fill="#D6D8D4"/>
<path transform="translate(1149,465)" d="m0 0 4 2 11 8 36 26 17 12 36 26 17 12 15 11 8-1h34l26 5 16 5 17 7 15 8 16 11 12 9v2l4 2 11 9 10 9 14 11 10 10 2 1-1 3-4-2v-2l-5 1-9 7-7 7-8 7-14 13-8 7-14 11-12 10-9 7-13 10-34 25-9 6-1 2-4-2-12-9-11-5-17-4-70-10-5-1-1-7-2-11-7-12-13-16-9-11-12-14-9-11-11-13-9-11-8-10-14-17-9-11-11-13-9-11-12-13-2-4 8-7 9-9 14-16h2l2-4 9-9 9-11 9-10 9-11z" fill="#2675A9"/>
<path transform="translate(1243,389)" d="m0 0h20l16 4 16 7 18 12 17 13 16 13 16 12 16 13 12 9 18 14 13 10 14 12 9 11 6 13 3 12v14l-4 13-9 17-8 11-4 6-4-2-17-12-15-9-17-8-18-6-30-6h-34l-8 1-16-12-19-13-16-12-17-12-14-10-36-26-14-10-3-4 6-7 10-13 11-14 12-13 4-5 15-11 15-7z" fill="#D6D8D4"/>
<path transform="translate(304,815)" d="m0 0h37l35 2 14 2 22 2 10 2 17 2 13 3 11 1 8 3 12 1 12 3 9 2 7 2 2 6-4 3-9 3-12 5-7 1-5 2-6 2-24 12-6 4h-3v2l-6 2v2l-6 1-1 3-5 4-5 1-1 3-8 6-5 5-4 3h-2v2l-11 9-12 13-6 10-3 4h-2l-2 4-4 7-2 1-6 11h-2l-1 5-8 16-8 20-4 14-2 13v9l-2 11-10-2-27-7 1-2-8-3-12-3-4-6 2-5 5-4h2v-2l5-5 7-8 8-14 8-15 8-19 5-12 6-20 2-10v-19l-3-21-4-11-5-11-8-15-3-3v-2h-2l-3-5-5-7-6-5 1-6z" fill="#C5C6C6"/>
<path transform="translate(994,956)" d="m0 0h7l15 4 20 7 10 3 12 5 50 19 30 11 35 13 28 11 9 6 6 7 4 9 1 5v8l-3 12-7 9-7 6-9 4-4 1h-8l-16-4-71-26-27-10-29-10-52-19-12-7-7-8-4-8-1-4v-17l4-8 9-10 9-6z" fill="#D6D8D4"/>
<path transform="translate(1149,465)" d="m0 0 4 2 11 8 36 26 17 12 36 26 17 12 14 10v2l-15 3-20 6-26 13-16 9-16 11-12 8-16 11-11 7h-2v2l-4-1-10-12-9-11-13-16-12-14-8-10-13-15-6-7 17-17 14-16h2l2-4 9-9 9-11 9-10 9-11z" fill="#16679E"/>
<path transform="translate(1023,597)" d="m0 0 4 2 14 17 11 13 9 11 12 14 9 10 18 22 12 14 11 14 5 5-1 1-18 2-18 6-16 9-12 11-7 8-7 11-6 15-2 6-5-5-10-16-14-23-21-35-26-42-9-13v-2l7-4 14-12 11-9 4-2v-2l14-11 12-11z" fill="#16679D"/>
<path transform="translate(791,724)" d="m0 0 11 1 12 6 7 6 6 9 13 29 12 29 10 24 11 27 2 8v10l-3 10-8 11-9 6-10 3h-9l-8-2-6-3-10-9-8-15-18-41-10-22-12-29-1-6h-2l-3-14 1-10 3-8 6-9 11-7 7-3z" fill="#D6D8D4"/>
<path transform="translate(767,1368)" d="m0 0h7l12 4 9 6 4 2 2 4 11 12 9 11 11 12 9 11 9 10 9 13 4 10v14l-4 9-4 6-5 5-8 5-5 2-13 1-12-4-9-7-11-11-7-8-12-14-9-9-9-11-10-11v-3h-2l-6-10-2-6v-13l3-10 6-8 7-6 10-5z" fill="#D6D8D4"/>
<path transform="translate(644,779)" d="m0 0h8l13 5 9 8 5 9 1 5h2l1 8 5 23 8 43 2 11v17l-4 10-7 9-10 6-5 2h-16l-10-4-10-9-6-12-6-26-8-37-4-19-1-9 1-15 5-10 9-9 12-5z" fill="#D6D8D4"/>
<path transform="translate(1e3 1132)" d="m0 0 6 2 19 11 14 7 23 13 34 18 11 7 8 7 6 11 1 4v11l-3 11-6 9-9 7-8 3-14 1-12-4-29-15-22-12-19-10-19-9-8-5-25-13-9-5 1-4 7 1 14 8 7 3 11 7 10 4 4 3v2h6l-2-8v-14l4-10 9-11 10-7 5-1v-2l2-1v-2l-5-2-7-2-4-3-5-2v-2l-4-1-2-2z" fill="#D6D8D4"/>
<path transform="translate(989,1028)" d="m0 0 7 1 50 18 23 8 9 3-1 5-7 12-10 16-12 19-14 23-7 11-7-1-18-10-30-16-13-6 2-8 11-31 10-27 6-16z" fill="#2675A9"/>
<path transform="translate(920,1276)" d="m0 0 4 2 11 8 14 11 13 10 19 14 11 10 5 8 3 12-1 11-4 9-7 9-7 5-9 3h-15l-16-8-19-14-36-26-28-21 1-5 5 1 13 10 9 6 9 5 3 3h4l2-15 5-10 9-10 10-6 11-4-4-4-4-2v-2l-4-2-7-6z" fill="#D6D8D4"/>
<path transform="translate(609,820)" d="m0 0h3l3 17 10 47 6 26 6 12 9 8 10 4h16l12-6 5-4 6-10 2-6v-17l-1-6v-9l4 2 8 8 8 16 5 16v11l-2 10-6 11-7 9-8 8h-2v2l-11 5-9 3-6 1h-15l-11-4-11-6-11-11-8-14-3-13v-16l3-15 3-6 1-4v-7l1-2v-6l-3-3-4-14-3-9-2-9-2-5-19 1-7 3h-8l-2 2-17 3-5 2-10 1-9 3h-8l1-3 11-5 27-8z" fill="#16679E"/>
<path transform="translate(1045,538)" d="m0 0h7l12 4 9 5 4 4v2h2l5 7v3l4 2v2h2l5 6v2l4 2 1 3 3 2 1 5 4 2v2l3 1v2l4 2 5 7v2h2l7 10v3l2 1-14 1-11 4-9 6-5 5-6 9-3 7-5-2-8-9v-2h-2l-2-5-4-2v-2h-2l-7-8-12-18v-2h-2v-2l-4-2-1-3h-2v-2l-7-1-5-8-3-7 1-15 6-10 7-6 4-4z" fill="#C5C6C6"/>
<path transform="translate(1085,669)" d="m0 0 5 5 11 13 9 11 11 13 4 5 3 3-1 1-18 2-18 6-16 9-12 11-7 8-7 11-6 15-2 6-5-5-10-16-14-23-12-20-4-8 8-2 16-8 19-10 11-6 18-10 12-6 5-1z" fill="#2675A9"/>
<path transform="translate(924,641)" d="m0 0 9 1 13 5 5 4 5 1 6 9 14 22 17 28 6 9-1 3 1 2h-2l-1 2-6-2h-14l-12 5-6 4-7 7-6 11-2 1-9-14v-2l-3-1-5-10-4-6-8-16-6-8-1-3-6-2-3-3-3-7-1-4v-10l4-8 11-12 11-5z" fill="#C5C6C6"/>
<path transform="translate(998,961)" d="m0 0 13 1 11 3 19 7 4 2 7 2v1l12 3 5 3v2l7 2 7 3h7l2 1v2l-13 9-7 9-5 10-1 4v13l3 10v4l-9-1-20-8-7-2-10-3v-2l-11-3-5-4-9-5-5-2-10-10-6-14v-6l2-4 3-11 6-10 3-1v-2z" fill="#C5C6C6"/>
<path transform="translate(941,1111)" d="m0 0 14 1 15 6 9 5 2 2 7 3 6 3 6 2 3 4 3 1 1 2 7 3 2 2 8 2 4 4-3 1v2l-10 5-7 6-7 10-3 8v14l1 8h-6l-4-4-14-6-8-6-9-4-13-7h-5l-1 2-5-2-18-18-3-9 1-8v-6l8-5 6-7 4-8z" fill="#C4C5C6"/>
<path transform="translate(841,1428)" d="m0 0 5 1v1l7 1 5 3 12 6 7 6 8 10 6 11 4 10 1 4v14l-4 13-5 9-9 11h-2v2l-4 1-1 3-12 6-12 3h-13l-16-5-11-7-5-4v-2h-2l-7-10-6-12-3-11-1-12-4-4v-2l-3-1-3-4-2-5-6-4v-2l-4-2-8-9-1-6 5 1 9 11 11 11 9 11 16 17 7 6 8 4 7 2 13-1 12-6 5-5 5-7 3-8v-14l-4-10-7-10-10-12z" fill="#16679E"/>
<path transform="translate(864,1249)" d="m0 0h12l9 3 6 5v2l6 2 3 3 5 2 10 8v2l5 1 9 8 2 1v2l5 2 4 4-12 5-10 6-9 10-4 9-2 15-5 1-9-7-9-5-16-12-5-1-2 3-8-5-3-8-6-8-4-12v-9l4-9 7-9 8-6z" fill="#C4C5C6"/>
<path transform="translate(791,724)" d="m0 0 11 1 12 6 7 6 6 9 1 4v3l4 9v5h2l5 12 8 19 1 5-4 1-9-2h-9l-8 2-12 6-7 7-9 14-1-2 1-3-6-18-8-20-3-8-6-8-7-2-2-8 1-10 3-8 6-9 11-7 7-3z" fill="#C4C6C6"/>
<path transform="translate(956,1301)" d="m0 0 17 3 13 1 8 3 14 9 9 9 8 13 5 16v11l-3 12-6 11-9 12-10 7-10 5-12 3h-9l-12-3-16-8-10-9-6-7-6-9-4-10-2-4-6-5-4-2v-2l-5-1-4-4-7-5v-2l-6-2-8-5v-2h-2l-2-5-3-1 4-1 18 13 14 10 18 13 16 12 14 8 5 2h15l11-4 6-5 7-10 2-6 1-11-3-12-7-10-9-8-15-11-9-7z" fill="#17679E"/>
<path transform="translate(861,823)" d="m0 0 12 7 12 11 7 11 6 13 2 9v12l-2 10-7 14-9 10-1 2h-3v2l-10 6-13 4-7 1h-8l-14-4-13-7-6-5v-2h-2l-10-14-4-13-1-8-1-33-2-5h5l16 36 6 10 9 8 7 3 6 1h9l12-4 8-6 6-9 3-10v-10l-5-16-8-19z" fill="#16679E"/>
<path transform="translate(1087,1167)" d="m0 0 16 1 12 4 12 7 8 8 9 14 4 13v18l-4 13-5 8-7 9-9 8-10 5-13 3h-14l-16-5-9-5-11-9-9-13-3-12 5 1 29 15 10 3 14-1 9-4 8-6 6-10 2-9v-11l-4-10-6-8-10-7-10-6-14-7-4-3 1-3z" fill="#2675A9"/>
<path transform="translate(897,696)" d="m0 0h3l13 22 12 19 7 11-1 4-6-2-41 14-30 8-10 3-4 2-12-26-4-8v-2l13-7 21-13 19-12z" fill="#17679D"/>
<path transform="translate(1176,1008)" d="m0 0h16l13 3 14 7 10 9 6 8 6 12 2 8v19l-5 13-6 9-10 11-11 7-12 4-5 1h-11l-16-4-14-8-5-4v-2h-2l-8-11-3-6v-3l8 1 27 10 13 3h8l10-3 8-6 7-8 3-8 1-6v-8l-3-10-5-8-6-5-12-6-32-12 1-5z" fill="#2675A9"/>
<path transform="translate(639,781)" d="m0 0h15l13 7 7 7 5 8 1 3h2l1 8 3 12-1 8 3 14v4l-5-1-12-6-8-2-10 1-11 4-9 7-5 3-3-2-3-15-1-9-1-2-1-9-5-5v-13l7-11 7-6 8-4z" fill="#C5C6C6"/>
<path transform="translate(768,1370)" d="m0 0 12 2 5 1v2l9 2 5 2 1 4 2 3 2 4 10 13 8 9v3l-18 4-10 5-8 7-10 15-3 1-4-3v-2l-4-2v-2l-4-2-6-12-5-3v-2l-5-1-3-4v-2h-2v-2h-3v-15l1-3 3-3 4-6 6-5z" fill="#C5C6C6"/>
<path transform="translate(925,1186)" d="m0 0 1 3-2 8 4 12 6 8 9 6 13 4 4 2-3 5-36 36-1 2h-5l-16-12-11-7 1-4 14-26 9-16 6-11 5-9z" fill="#17689E"/>
<path transform="translate(962,801)" d="m0 0 4 1 17 28 7 8 7 5 12 4h9l10-4h3l1 10-6 21-4 2h-10l-9-2-11-5-11-7-5-5-2-4-3-1-7-13-3-12-2-16 1-8z" fill="#16679E"/>
<path transform="translate(508,838)" d="m0 0 11 2 10 2-1 2-24 9-29 12-17 8-23 13-15 10-17 13-13 12-3 3h-2l-2 4-13 13-13 19-10 16-8 16-10 26-7 26-2 1 1-11 2-11 2-7 3-10 6-13 6-14 4-8h2l2-5 4-7 3-3 3-5 2-3h2l2-4 7-11 14-15 7-6h2v-2l8-6h2l2-4 7-5 3-3 5-3 4-4 6-1v-2l3-2h3v-2l11-6 17-9 16-6 9-2 14-6 7-2 1-2-1-5h-3z" fill="#D4D6D3"/>
<path transform="translate(1180,671)" d="m0 0 7 2 2 2 2-1 20 10 8 9 9 15 4 12 1 9 1 4-16-1-5-1-1-7-2-11-7-12-13-16-9-11z" fill="#17689F"/>
<path transform="translate(609,820)" d="m0 0h3l3 17 7 33v5l-5-2-3-9-2-7-3-9-2-9-2-5-19 1-7 3h-8l-2 2-17 3-5 2-10 1-9 3h-8l1-3 11-5 27-8z" fill="#1B679C"/>
<path transform="translate(761,776)" d="m0 0h2l8 20 12 29 5 10-1 5-5-5-1-4h-2l-8-16-3-4-3-8v-3h-2l-2-8-14 2-2 1-14 2v2l-7 3-6 2-9 2-4 2h-8l-14 1-1-2 20-5 22-9 24-11z" fill="#1B679C"/>
<path transform="translate(974,1868)" d="m0 0h3v2l-24 11-13 5-10 5-21 9-45 18-26 10-29 11-40 14-6 2-9 4-3 4-9-3 3-2 67-23 42-16 30-12 22-9 26-11 25-11z" fill="#FC9451"/>
<path transform="translate(1326,563)" d="m0 0h12l22 5 17 6 19 9 21 14 12 9-1 2h-4v-2l-8-1v-3l-4-2-1-3-4-1-6-3-9-5v-2l-4-1-5-4-13-5-21-7-12-2-11-3z" fill="#1C6CA2"/>
<path transform="translate(1428,609)" d="m0 0 6 2 10 8 10 9 14 11 5 6-5 5-3 1-6-8-5-5-7-4-5-5-8-7v-3h-2l-1-6-3-2z" fill="#1A679C"/>
<path transform="translate(1566,726)" d="m0 0 6 1 10 8 15 10 13 8 22 12 17 8 20 8 1 3-8-1-4-3-7-2-10-3v-2l-7-2-5-3-4-1v-2l-6-2-10-4v-2l-5-1-3-2v-2l-4-1v-2l-5-1-3-3-4-2-5-5-7-5-4-2z" fill="#2C7BAF"/>
<path transform="translate(315,813)" d="m0 0h12l38 2 34 3 32 4 39 7 37 8 1 2-6-1-17-3-2-1-12-1-8-3-16-2-8-2-24-3-13-2-21-2-5-1-35-2h-37l-10 1h-15v-1l18-2z" fill="#D7D9D5"/>
<path transform="translate(849,1313)" d="m0 0 5 2 10 8v3l-5-1-16 11-6 7-5 4-5 5-4 3-3 1 2-4 11-15 7-9z" fill="#1B689D"/>
<path transform="translate(366,943)" d="m0 0 1 3-9 12-12 20-7 14-10 26-7 26-2 1 1-11 2-11 2-7 3-10 6-13 6-14 4-8h2l2-5 4-7 3-3 3-5 5-5z" fill="#D2D5D2"/>
<path transform="translate(978,1116)" d="m0 0 4 1 2-1v2l10 3v2l7 2 8 4v2l7 1 1 2 9 2 4-5h2l2-4 2-1-1 5-8 13-7-1-18-10-24-13v-3z" fill="#1A6AA1"/>
<path transform="translate(2026,1021)" d="m0 0 2 1-37 25-36 24-29 19-17 11-21 13-5 1 5-4 6-5 9-5 10-6 22-14 7-5 5-3 7-5 7-4 10-7 7-5 5-3 7-5 5-3 12-8 7-5 9-5z" fill="#69B7EC"/>
<path transform="translate(1030,960)" d="m0 0 6 2v2l10 1 9 2 5 3 8 3 10 4 10 5v2l-6 1-35-13-8-3-11-4v-4z" fill="#1B6BA2"/>
<path transform="translate(473,865)" d="m0 0 2 1-7 5-7 3-8 4-11 6-3 3-9 5-6 5-8 6-5 4h-2v2l-8 6-3 1v2l-4 2-6 7-8 7-4 3 1-4 21-21 14-11 11-8 19-12 20-11z" fill="#1D6A9F"/>
<path transform="translate(791,724)" d="m0 0 11 1 12 6 7 6 5 8-1 3-2-3v-3l-5-2-3-5-8-5-12-3h-7l-12 5-5 4-8 11-1 3-1 19-2-1-1-11 3-12 7-10 11-7 7-3z" fill="#D7D9D5"/>
<path transform="translate(767,1368)" d="m0 0h7l12 4 6 4-2 1-5-2v-2l-8-1-9-1-17 8-4 4h-2l-2 4-3 5h-2l-1 6h-1l1-8 6-9 8-7 10-5z" fill="#D7D9D5"/>
<path transform="translate(974,1868)" d="m0 0h3v2l-24 11-13 5-10 5-21 9-22 9-3-1 5-3 24-10 26-11 27-12z" fill="#FA9554"/>
<path transform="translate(1035,767)" d="m0 0 1 2 6 1 3 1-1 8-3 9-5-5-7-11 1-4z" fill="#1B6BA1"/>
<path transform="translate(1017,1038)" d="m0 0 7 1 36 13 12 4-1 3-6-1-5-2-9-3-13-5-21-7z" fill="#1D6DA4"/>
<path transform="translate(508,838)" d="m0 0 11 2 10 2-1 2-24 9-13 5h-2l1-3 14-6 7-2 1-2-1-5h-3z" fill="#D3D6D4"/>
<path transform="translate(936,1180)" d="m0 0 5 1 23 12 16 9 1 2-4 3-5-3-3-3-7-5-5-2-2-2-4-1v-2l-4-1-10-4z" fill="#1C6CA3"/>
<path transform="translate(752,1441)" d="m0 0 5 1 9 11 11 11-1 2-6-3-5-3v-2l-4-2-8-9z" fill="#1D6EA4"/>
<path transform="translate(923,640)" d="m0 0h10l9 3 6 3 6 5-1 2-6-4-8-4-9-3-10 1-12 6-10 11-4 10-1-4 5-10 6-7 10-6z" fill="#D7D9D5"/>
<path transform="translate(1074,1059)" d="m0 0 3 1-3 9-9 14-14 22-2 1 1-6 5-6 2-5 4-6 3-5 6-9 3-5z" fill="#1969A0"/>
<path transform="translate(1778,805)" d="m0 0 4 2-9 6-27 14-22 11-3-1 17-9 16-8 19-10h2v-4z" fill="#2F7EB2"/>
<path transform="translate(791,1942)" d="m0 0 2 1-1 2-23 8-6 2-9 4-3 4-9-3 3-2 38-13z" fill="#F89657"/>
<path transform="translate(473,865)" d="m0 0 2 1-7 5-7 3-8 4-11 6-3 3-9 5-6 5v-3l5-5 15-9 18-10z" fill="#296794"/>
<path transform="translate(857,1584)" d="m0 0h2l-2 4-16 16-7 8-5 3 2-4 1-3h2v-2h2v-2l5-5 3-1 2-4h2l2-4h2v-2l4-1z" fill="#1A6AA0"/>
<path transform="translate(1023,1038)" d="m0 0 8 1 3 2 9 2 7 3 14 5 1 3-11-3-30-11z" fill="#D1D3D0"/>
<path transform="translate(826,750)" d="m0 0 3 1 8 17 9 21-1 2-3-3-6-13-2-5v-3h-2l-3-10z" fill="#CCD2D2"/>
<path transform="translate(792,724)" d="m0 0 10 1 12 6 7 6 5 8-1 3-2-3v-3l-5-2-3-5-8-5-16-4z" fill="#D6D8D4"/>
<path transform="translate(515,848)" d="m0 0h3l-1 4-7 2-9 3-5 2h-5v-2z" fill="#226696"/>
<path transform="translate(79,1198)" d="m0 0 9 3 20 8 17 7-3 1-28-11-11-5v2h-2z" fill="#FB9552"/>
<path transform="translate(289,1050)" d="m0 0 8 1 12 3h7l3-3v8l-10-2-19-5z" fill="#D1D2D0"/>
<path transform="translate(918,1893)" d="m0 0h2l-1 3-8 3-24 10-3-1 5-3 24-10z" fill="#F7985A"/>
<path transform="translate(1990,1044)" d="m0 0m-1 1 2 2-24 16-7 4 2-4 11-7 5-4 5-3z" fill="#6AB8ED"/>
<path transform="translate(398,912)" d="m0 0 2 1-12 14-8 7-4 3 1-4 12-12z" fill="#1E6DA2"/>
<path transform="translate(316,1674)" d="m0 0 7 6 3 3v2h2l1 4-2 2-9-10-4-6z" fill="#FB9753"/>
<path transform="translate(679,1494)" d="m0 0v3l-6 9-5 5h-3l2-4 9-11z" fill="#1D6EA4"/>
<path transform="translate(656,781)" d="m0 0 9 3 9 8 5 9-1 2-7-10-7-6-8-4z" fill="#D6D8D4"/>
<path transform="translate(936,1180)" d="m0 0 5 1 15 8-1 2h-4v-2l-4-1-10-4z" fill="#1D6EA4"/>
<path transform="translate(957,656)" d="m0 0 5 5 12 19-1 3-5-6-3-6-6-10z" fill="#D0D3D1"/>
<path transform="translate(977,1210)" d="m0 0v3l-10 13-11 12-2-1 7-8 12-14z" fill="#4694C8"/>
<path transform="translate(1089,724)" d="m0 0 5 1v2l-16 8h-3v-4l5-2 7-2z" fill="#1C6CA3"/>
<path transform="translate(1522,689)" d="m0 0 4 2 7 4 7 6-1 3-7-4-8-7z" fill="#2C7BAF"/>
<path transform="translate(1547,709)" d="m0 0 5 2 9 8 3 2v2l-5-1-8-7-4-4z" fill="#2E7DB1"/>
<path transform="translate(1044,537)" d="m0 0h12l11 4 5 5-4-1-12-5-4-1h-7l-5 2-3-1z" fill="#D7D9D5"/>
<path transform="translate(442,881)" d="m0 0h2v2l-5 4-9 5-6 5v-3l5-5z" fill="#236797"/>
<path transform="translate(1672,783)" d="m0 0 9 2 10 3 3 2-1 2-20-6-2-2z" fill="#3781B3"/>
<path transform="translate(1752,821)" d="m0 0v3l-28 14-3-1 17-9z" fill="#2B7AAE"/>
<path transform="translate(508,848)" d="m0 0 2 1v2l-19 7h-2l1-3 14-6z" fill="#D1D3D0"/>
<path transform="translate(1055,1052)" d="m0 0 8 1 9 3-1 3-6-1-10-4z" fill="#1D6DA3"/>
<path transform="translate(975,685)" d="m0 0 3 1 10 17-1 3-5-7-4-7-3-4z" fill="#D0D4D2"/>
<path transform="translate(1039,1046)" d="m0 0 7 1 11 4-2 2-6-1-10-4z" fill="#1F6FA5"/>
<path transform="translate(904,1264)" d="m0 0 4 2 11 8 1 3-5-1-5-5-6-5z" fill="#D3D4D1"/>
<path transform="translate(264,1042)" d="m0 0 12 2 7 3 3 2h-7l-14-4z" fill="#D1D2D0"/>
<path transform="translate(974,1868)" d="m0 0h3v2l-20 9-2-1 5-3z" fill="#F59C62"/>
<path transform="translate(1499,670)" d="m0 0 5 1 8 6-1 3-4-2-8-7z" fill="#2D7CB0"/>
<path transform="translate(1030,544)" d="m0 0 2 1-5 5-3 1-2 5-4 7-1-3 6-10z" fill="#D7D9D5"/>
<path transform="translate(660,1518)" d="m0 0v3l-6 8h-2l1-5 4-5z" fill="#2070A6"/>
<path transform="translate(1047,1107)" d="m0 0 1 3-7 11-3-1 8-12z" fill="#1A6BA1"/>
<path transform="translate(906,1539)" d="m0 0h2l-2 4-4 5-5 3-2-1z" fill="#1C6CA2"/>
<path transform="translate(1658,778)" d="m0 0 6 1 6 3v2l-8-1-4-4z" fill="#2B7AAE"/>
<path transform="translate(989,1028)" d="m0 0 7 1 3 1v2h-9l-2-1z" fill="#1B6BA2"/>
<path transform="translate(1118,984)" d="m0 0 1 3-4 9-5-1 4-1-1-3 2-4z" fill="#1A6AA1"/>
<path transform="translate(289,1050)" d="m0 0 8 1 7 2v2l-7-1-8-3z" fill="#CFD0CE"/>
<path transform="translate(684,827)" d="m0 0 2 3 2 7v5h-2l-2-8z" fill="#D2D3D1"/>
<path transform="translate(1e3 1032)" d="m0 0 7 1 3 1 1 3-6-1-5-2z" fill="#1D6DA3"/>
<path transform="translate(956,1493)" d="m0 0h2l-2 4-6 6-3-1 3-3h2l2-4h2z" fill="#1B6BA1"/>
<path transform="translate(1055,1095)" d="m0 0 1 2-6 9-1-4z" fill="#18699F"/>
<path transform="translate(957,791)" d="m0 0h2l4 7-4 1-3-4z" fill="#2070A6"/>
<path transform="translate(942,768)" d="m0 0 4 2 2 4-1 3-5-5z" fill="#1B6BA2"/>
<path transform="translate(1307,745)" d="m0 0 8 1 1 3 3 1-3 1-9-5z" fill="#1D6DA3"/>
<path transform="translate(1295,740)" d="m0 0 10 2 1 3-8-1-4-3z" fill="#1D6EA4"/>
<path transform="translate(1471,645)" d="m0 0 4 1 5 4-1 3-4-2v-2l-4-1z" fill="#2E7DB1"/>
<path transform="translate(1778,805)" d="m0 0 4 2-5 4-4-1h2v-4z" fill="#2C78AB"/>
<path transform="translate(826,750)" d="m0 0 3 1 4 8-1 4-6-12z" fill="#D3D5D2"/>
</svg>
